<?xml version="1.0" encoding="UTF-8" standalone="no"?>
<!-- MotoGP wordmark, recoloured from the official black (#000000) to silver-grey
     so it reads on the dark header. The favicon (app/motogp/icon.svg) keeps its
     own colours. -->

<svg
   xmlns:dc="http://purl.org/dc/elements/1.1/"
   xmlns:cc="http://creativecommons.org/ns#"
   xmlns:rdf="http://www.w3.org/1999/02/22-rdf-syntax-ns#"
   xmlns:svg="http://www.w3.org/2000/svg"
   xmlns="http://www.w3.org/2000/svg"
   xmlns:sodipodi="http://sodipodi.sourceforge.net/DTD/sodipodi-0.dtd"
   xmlns:inkscape="http://www.inkscape.org/namespaces/inkscape"
   width="509.7272mm"
   height="81.491722mm"
   viewBox="0 0 509.7272 81.491722"
   version="1.1"
   id="svg8"
   inkscape:version="0.92.5 (2060ec1f9f, 2020-04-08)"
   sodipodi:docname="MOTOGP-2025.svg">
  <defs
     id="defs2" />
  <sodipodi:namedview
     id="base"
     pagecolor="#ffffff"
     bordercolor="#666666"
     borderopacity="1.0"
     inkscape:pageopacity="0.0"
     inkscape:pageshadow="2"
     inkscape:zoom="0.75628279"
     inkscape:cx="963.26402"
     inkscape:cy="154.00011"
     inkscape:document-units="mm"
     inkscape:current-layer="layer1"
     showgrid="false"
     showguides="true"
     inkscape:guide-bbox="true"
     inkscape:window-width="1920"
     inkscape:window-height="1009"
     inkscape:window-x="-8"
     inkscape:window-y="-8"
     inkscape:window-maximized="1" />
  <metadata
     id="metadata5">
    <rdf:RDF>
      <cc:Work
         rdf:about="">
        <dc:format>image/svg+xml</dc:format>
        <dc:type
           rdf:resource="http://purl.org/dc/dcmitype/StillImage" />
        <dc:title></dc:title>
      </cc:Work>
    </rdf:RDF>
  </metadata>
  <g
     inkscape:label="Layer 1"
     inkscape:groupmode="layer"
     id="layer1"
     transform="translate(157.25023,-102.33149)">
    <path
       style="fill:#d4d4d8;fill-opacity:1;fill-rule:nonzero;stroke:none;stroke-width:0.26458332"
       d="m 53.052712,111.60126 c -19.934502,0 -36.111497,16.17597 -36.111497,36.11046 0,19.93449 16.176995,36.11149 36.111497,36.11149 19.934475,0 36.111497,-16.177 36.111497,-36.11149 0,-19.93449 -16.177022,-36.11046 -36.111497,-36.11046 z m 0,19.29701 c 9.014777,0 16.340587,7.53788 16.340587,16.81345 0,9.27557 -7.32581,16.81344 -16.340587,16.81344 -9.014804,0 -16.341116,-7.53787 -16.341116,-16.81344 0,-9.27557 7.326312,-16.81345 16.341116,-16.81345 z"
       id="path883"
       inkscape:connector-curvature="0" />
    <path
       style="fill:#d4d4d8;fill-opacity:1;fill-rule:nonzero;stroke:none;stroke-width:0.26458332"
       d="m 93.932234,102.33149 h 19.583256 v 13.21049 h 16.53837 v 19.58326 h -16.53837 v 25.79052 c 0,1.14594 0.81365,1.95832 1.95832,1.95832 h 14.58005 v 19.58453 h -14.58005 c -12.19721,0 -21.541576,-9.34438 -21.541576,-21.54285 z"
       id="path881"
       inkscape:connector-curvature="0" />
    <path
       style="fill:#d4d4d8;fill-opacity:1;fill-rule:nonzero;stroke:none;stroke-width:0.26458332"
       d="m 167.76559,111.60126 c -19.93447,0 -36.11149,16.17597 -36.11149,36.11046 0,19.93449 16.17702,36.11149 36.11149,36.11149 19.9345,0 36.1115,-16.177 36.1115,-36.11149 0,-19.93449 -16.177,-36.11046 -36.1115,-36.11046 z m 0,19.29701 c 9.01481,0 16.34112,7.53788 16.34112,16.81345 0,9.27557 -7.32631,16.81344 -16.34112,16.81344 -9.01477,0 -16.34058,-7.53787 -16.34058,-16.81344 0,-9.27557 7.32581,-16.81345 16.34058,-16.81345 z"
       id="path877"
       inkscape:connector-curvature="0" />
    <path
       style="fill:#d4d4d8;fill-opacity:1;fill-rule:nonzero;stroke:none;stroke-width:0.26458332"
       d="m -61.592266,126.99849 c 0,-10.81496 -8.61117,-19.44044 -19.35718,-19.44044 -5.59048,0 -10.82409,2.33446 -14.55547,6.46974 l -61.745314,68.42893 h 28.93396 l 43.135014,-48.03179 c 0.88163,-0.98171 2.09979,-0.64251 2.09979,0.58469 v 28.95199 c 0,10.91325 8.29657,19.31398 19.07418,19.31398 5.6508,0 10.87755,-2.30934 14.59789,-6.44965 l 38.12855,-42.43267 c 0.87422,-0.9729 2.0497395,-0.57586 2.0497395,0.69234 v 47.373 H 12.264364 v -55.46012 c 0,-10.8272 -8.5677905,-19.44044 -19.2732705,-19.44044 -5.5396195,0 -10.6787595,2.30629 -14.3903395,6.42896 l -38.08128,42.29917 c -0.82931,0.92116 -2.11174,0.52968 -2.11174,-0.64463 z"
       id="path852"
       inkscape:connector-curvature="0"
       sodipodi:nodetypes="sssccsssssssccssssss" />
    <path
       inkscape:connector-curvature="0"
       id="path970"
       style="fill:#d4d4d8;fill-opacity:1;fill-rule:nonzero;stroke:none;stroke-width:0.26458332"
       d="m 209.85808,145.22514 c 0,20.54998 16.6835,37.23347 37.23397,37.23347 h 62.50678 v -22.48588 h 16.88771 c 14.34544,0 25.99044,-11.64496 25.99044,-25.9905 0,-14.3457 -11.64535,-25.99159 -25.99044,-25.99159 h -79.39449 c -20.54988,0 -37.23397,16.68414 -37.23397,37.2345 z m 37.23397,29.85564 c -16.47839,0 -29.85614,-13.37779 -29.85614,-29.85559 0,-16.47799 13.37804,-29.85548 29.85614,-29.85548 h 32.18916 v 15.10805 h -32.18916 c -8.14014,0 -14.74814,6.6074 -14.74814,14.74743 0,8.13984 6.60775,14.74754 14.74814,14.74754 h 17.44862 v -7.37783 h -17.44862 c -4.06832,0 -7.37031,-3.30199 -7.37031,-7.36971 0,-4.06791 3.30229,-7.3696 7.37031,-7.3696 h 32.18916 v 37.22519 z m 54.5819,0 h -14.73931 v -37.22519 h 39.5519 c 2.03608,0 3.68955,-1.65352 3.68955,-3.68951 0,-2.03574 -1.65317,-3.68832 -3.68955,-3.68832 h -39.5519 v -15.10805 h 39.5519 c 10.27336,0 18.61262,8.33924 18.61262,18.61227 0,10.27199 -8.33756,18.61292 -18.60504,18.61292 h -24.82017 z" />
  </g>
</svg>
